#N canvas 588 99 476 551 10;
#X obj 109 506 dac~;
#X obj 109 484 *~;
#X obj 27 467 line;
#X obj 27 229 receive fromGUI;
#X obj 125 56 loadbang;
#X obj 125 172 send toGUI;
#X obj 27 95 s wavefreq;
#X obj 119 424 r wavefreq;
#X obj 27 251 route list;
#X obj 27 273 route /btn.go /knb.cfreq;
#X obj 27 309 tgl 15 0 empty empty empty 17 7 0 10 -262144 -1 -1 0
1;
#X obj 109 452 osc~;
#X text 191 111 reverse mapping 17k~19k to 0~1;
#X text 192 77 start-up default 17kHz;
#X text 172 344 linear mapping from 0~1 to 17kHz~19kHz;
#X floatatom 109 324 5 0 0 0 - - -, f 5;
#X obj 109 343 * 2000;
#X text 65 345 scale;
#X text 58 367 offset;
#X obj 109 365 + 17000;
#X floatatom 109 387 8 0 0 0 - - -, f 8;
#X obj 125 100 - 17000;
#X obj 125 122 / 2000;
#X floatatom 77 139 5 0 0 0 - - -, f 5;
#X text 398 520 .anchor.;
#X text -1 11 ||||||||||||||||||||||||||||||phoneForum|unmakelab @
2015 autumn|||, f 67;
#X msg 125 150 list /knb.cfreq \$1;
#X msg 125 78 17000;
#X obj 285 423 send toGUI;
#X msg 285 401 list /lbl.cfreq \$1;
#X msg 27 445 \$1 50;
#X connect 1 0 0 0;
#X connect 2 0 1 1;
#X connect 3 0 8 0;
#X connect 4 0 27 0;
#X connect 7 0 11 0;
#X connect 8 0 9 0;
#X connect 9 0 10 0;
#X connect 9 1 15 0;
#X connect 10 0 30 0;
#X connect 11 0 1 0;
#X connect 15 0 16 0;
#X connect 16 0 19 0;
#X connect 19 0 20 0;
#X connect 20 0 11 0;
#X connect 20 0 29 0;
#X connect 21 0 22 0;
#X connect 22 0 26 0;
#X connect 22 0 23 0;
#X connect 26 0 5 0;
#X connect 27 0 6 0;
#X connect 27 0 21 0;
#X connect 29 0 28 0;
#X connect 30 0 2 0;
