#N canvas 290 89 998 645 10;
#X obj 67 229 receive fromGUI;
#X obj 124 56 loadbang;
#X obj 67 251 route list;
#X text 190 111 reverse mapping 17k~19k to 0~1;
#X text 191 77 start-up default 17kHz;
#X text 130 315 linear mapping from 0~1 to 17kHz~19kHz;
#X floatatom 67 295 5 0 0 0 - - -, f 5;
#X obj 67 314 * 2000;
#X text 23 316 scale;
#X text 16 338 offset;
#X obj 67 336 + 17000;
#X floatatom 67 358 8 0 0 0 s:cfreq - cfreq, f 8;
#X obj 124 100 - 17000;
#X obj 124 122 / 2000;
#X text 925 616 .anchor.;
#X msg 124 78 17000;
#X obj 90 585 send toGUI;
#X msg 90 563 list /lbl.cfreq \$1;
#X obj 697 227 adc~;
#X obj 697 425 fiddle~ 1024 1 20 3;
#X obj 869 185 * 0.5;
#X obj 750 254 -;
#X obj 750 342 +;
#X obj 697 249 hip~;
#X obj 697 271 hip~;
#X obj 697 293 hip~;
#X obj 697 315 hip~;
#X obj 697 337 lop~;
#X obj 697 359 lop~;
#X obj 697 381 lop~;
#X obj 697 403 lop~;
#X text 513 273 4 1-pole high pass filter;
#X text 520 361 4 1-pole low pass filter;
#X text -1 11 ||||||||||||||||||||||||||||||||||||||||||||||||||||||||||||||||||||||||||||||||||||||||||||||||||||||||phoneForum|unmakelab
@ 2015 autumn|||, f 141;
#X obj 67 273 route /knb.cfreq /knb.cbw;
#X floatatom 153 386 5 0 0 0 - - -, f 5;
#X obj 153 405 * 2000;
#X text 109 407 scale;
#X text 102 429 offset;
#X floatatom 153 449 8 0 0 0 s:cbw - cbw, f 8;
#X obj 307 585 send toGUI;
#X text 216 406 linear mapping from 0~1 to 0.1kHz~2.1kHz;
#X obj 153 427 + 100;
#X msg 307 563 list /lbl.cbw \$1;
#X floatatom 90 544 8 0 0 0 r:cfreq cfreq -, f 8;
#X floatatom 307 544 5 0 0 0 r:cbw cbw -, f 5;
#X floatatom 750 165 8 0 0 0 r:cfreq cfreq -, f 8;
#X floatatom 869 165 8 0 0 0 r:cbw cbw -, f 8;
#X obj 524 56 loadbang;
#X obj 524 122 / 2000;
#X msg 524 78 1000;
#X obj 524 100 - 100;
#X text 591 77 start-up default 1kHz;
#X text 590 111 reverse mapping 0.1k~2.1k to 0~1;
#X floatatom 74 95 5 0 0 0 s:cfreq - cfreq, f 5;
#X floatatom 474 95 5 0 0 0 s:cbw - cbw, f 5;
#X msg 124 144 list /knb.cfreq \$1;
#X obj 124 166 s toGUI;
#X obj 524 166 s toGUI;
#X msg 524 144 list /knb.cbw \$1;
#X msg 586 549 list /tgl.signal \$1;
#X obj 586 571 send toGUI;
#X floatatom 750 276 8 0 0 0 - - -, f 8;
#X floatatom 750 364 8 0 0 0 - - -, f 8;
#X obj 869 207 t b a;
#X floatatom 750 224 8 0 0 0 - - -, f 8;
#X obj 762 510 >= 16000;
#X obj 762 532 sel 1;
#X obj 525 463 bng 15 250 50 0 empty empty empty 17 7 0 10 -262144
-1 -1;
#X obj 762 447 unpack;
#X floatatom 762 491 8 0 0 0 - - -, f 8;
#X obj 762 469 mtof;
#X obj 437 517 *~;
#X msg 578 500 0;
#X msg 525 500 1;
#X obj 437 539 dac~;
#X obj 578 478 delay 30;
#X obj 437 495 osc~;
#X msg 432 451 440;
#X floatatom 597 411 8 0 0 0 r:cfreq cfreq -, f 8;
#X obj 529 425 -;
#X obj 479 455 t b a;
#X obj 484 484 +;
#X obj 474 427 * 0.1;
#X connect 0 0 2 0;
#X connect 1 0 15 0;
#X connect 2 0 34 0;
#X connect 6 0 7 0;
#X connect 7 0 10 0;
#X connect 10 0 11 0;
#X connect 12 0 13 0;
#X connect 13 0 56 0;
#X connect 15 0 12 0;
#X connect 15 0 54 0;
#X connect 17 0 16 0;
#X connect 18 0 23 0;
#X connect 19 2 69 0;
#X connect 20 0 64 0;
#X connect 21 0 23 1;
#X connect 21 0 24 1;
#X connect 21 0 25 1;
#X connect 21 0 26 1;
#X connect 21 0 62 0;
#X connect 22 0 27 1;
#X connect 22 0 28 1;
#X connect 22 0 29 1;
#X connect 22 0 30 1;
#X connect 22 0 63 0;
#X connect 23 0 24 0;
#X connect 24 0 25 0;
#X connect 25 0 26 0;
#X connect 26 0 27 0;
#X connect 27 0 28 0;
#X connect 28 0 29 0;
#X connect 29 0 30 0;
#X connect 30 0 19 0;
#X connect 34 0 6 0;
#X connect 34 1 35 0;
#X connect 35 0 36 0;
#X connect 36 0 42 0;
#X connect 42 0 39 0;
#X connect 43 0 40 0;
#X connect 44 0 17 0;
#X connect 45 0 43 0;
#X connect 46 0 65 0;
#X connect 47 0 20 0;
#X connect 48 0 50 0;
#X connect 49 0 59 0;
#X connect 50 0 51 0;
#X connect 50 0 55 0;
#X connect 51 0 49 0;
#X connect 56 0 57 0;
#X connect 59 0 58 0;
#X connect 60 0 61 0;
#X connect 64 0 65 0;
#X connect 64 1 21 1;
#X connect 64 1 22 1;
#X connect 65 0 21 0;
#X connect 65 0 22 0;
#X connect 66 0 67 0;
#X connect 67 0 68 0;
#X connect 68 0 74 0;
#X connect 68 0 76 0;
#X connect 69 0 71 0;
#X connect 70 0 66 0;
#X connect 70 0 80 0;
#X connect 71 0 70 0;
#X connect 72 0 75 0;
#X connect 72 0 75 1;
#X connect 73 0 72 1;
#X connect 73 0 60 0;
#X connect 74 0 72 1;
#X connect 74 0 60 0;
#X connect 76 0 73 0;
#X connect 78 0 82 0;
#X connect 79 0 80 1;
#X connect 80 0 83 0;
#X connect 81 0 78 0;
#X connect 81 1 82 1;
#X connect 82 0 77 0;
#X connect 83 0 81 0;
